De Bende van Oss (2011) BD25 Retail 1080p DTS Eng NL Subs
.
[IMG]http://img696.imageshack.us/img696/6186/bvok.jpg[/IMG]
.
Nederland
Misdaad / Drama
111 minuten

geregisseerd door AndrÚ van Duren
met Sylvia Hoeks, Frank Lammers en Marcel Musters

Oss, jaren '30. Johanna van Heesch wil breken met de misdaad die haar omringt. Haar echtgenoot Ties valt, wanneer hij weer is vrijgelaten uit de gevangenis, terug in zijn oude gedrag. Hoe harder Johanna probeert te ontsnappen van de gruweldaden gepleegd door De Bende van Oss, hoe verder ze wegzakt in oplichting, prostitutie, doodslag en moord.

Vanaf 17 januari te huur
Vanaf 22 februari te koop op DVD en Blu-Ray
. 
http://www.moviemeter.nl/film/75445
.
PLOT
.
Johanna wants to change her life and quit the criminal gangs of the town of Oss in the 30ties of the 20th century. The harder she tries, the more she is involved. 
. 
http://www.imdb.com/title/tt1714193/
.
INFO
.
Disc Title:     DE BENDE VAN OSS
Disc Size:      22,806,476,234 bytes
Protection:     AACS
BD-Java:        No
Extras:         50Hz Content
BDInfo:         0.5.8

Notes:          


<--- BEGIN FORUMS PASTE --->
[code]
                                                                                                                Total   Video                                             
Title                                                           Codec   Length  Movie Size      Disc Size       Bitrate Bitrate Main Audio Track                          Secondary Audio Track
-----                                                           ------  ------- --------------  --------------  ------- ------- ------------------                        ---------------------
00000.MPLS                                                      VC-1    1:51:31 21,700,988,928  22,806,476,234  25.94   19.94   DTS-HD Master 5.1 2211Kbps (48kHz/16-bit) DTS-HD Master 2.0 2104Kbps (48kHz/24-bit)
[/code]

[code]

DISC INFO:

Disc Title:     DE BENDE VAN OSS
Disc Size:      22,806,476,234 bytes
Protection:     AACS
BD-Java:        No
Extras:         50Hz Content
BDInfo:         0.5.8

PLAYLIST REPORT:

Name:                   00000.MPLS
Length:                 1:51:31.541 (h:m:s.ms)
Size:                   21,700,988,928 bytes
Total Bitrate:          25.94 Mbps

VIDEO:

Codec                   Bitrate             Description     
-----                   -------             -----------     
VC-1 Video              19943 kbps          1080p / 24 fps / 16:9 / Advanced Profile 3

AUDIO:

Codec                           Language        Bitrate         Description     
-----                           --------        -------         -----------     
DTS-HD Master Audio             Dutch           2211 kbps       5.1 / 48 kHz / 2211 kbps / 16-bit (DTS Core: 5.1 / 48 kHz / 1509 kbps / 16-bit)
DTS-HD Master Audio             Dutch           2104 kbps       2.0 / 48 kHz / 2104 kbps / 24-bit (DTS Core: 2.0 / 48 kHz / 1509 kbps / 24-bit)

SUBTITLES:

Codec                           Language        Bitrate         Description     
-----                           --------        -------         -----------     
Presentation Graphics           Dutch           22.185 kbps                     
Presentation Graphics           English         24.132 kbps                     
Presentation Graphics           Dutch           29.385 kbps                     

FILES:

Name            Time In         Length          Size            Total Bitrate   
----            -------         ------          ----            -------------   
00000.M2TS      0:00:00.000     1:51:30.541     21,700,958,208  25,948          
00006.M2TS      1:51:30.541     0:00:01.000     30,720          246             

CHAPTERS:

Number          Time In         Length          Avg Video Rate  Max 1-Sec Rate  Max 1-Sec Time  Max 5-Sec Rate  Max 5-Sec Time  Max 10Sec Rate  Max 10Sec Time  Avg Frame Size  Max Frame Size  Max Frame Time  
------          -------         ------          --------------  --------------  --------------  --------------  --------------  --------------  --------------  --------------  --------------  --------------  
1               0:00:00.000     0:10:01.250     20,842 kbps     42,494 kbps     00:05:01.791    38,684 kbps     00:04:57.833    36,345 kbps     00:02:47.708    108,545 bytes   497,562 bytes   00:02:11.875    
2               0:10:01.250     0:10:57.041     24,002 kbps     55,631 kbps     00:18:25.375    38,989 kbps     00:17:29.875    36,419 kbps     00:20:01.083    125,010 bytes   595,060 bytes   00:17:58.583    
3               0:20:58.291     0:09:42.374     22,125 kbps     43,302 kbps     00:24:05.458    37,996 kbps     00:24:05.333    35,177 kbps     00:24:03.291    115,233 bytes   407,900 bytes   00:30:36.708    
4               0:30:40.666     0:10:02.375     21,122 kbps     47,359 kbps     00:32:55.749    38,984 kbps     00:32:24.375    35,532 kbps     00:32:18.833    110,010 bytes   453,246 bytes   00:32:24.708    
5               0:40:43.041     0:09:00.583     19,212 kbps     43,367 kbps     00:46:21.125    36,986 kbps     00:46:17.333    32,388 kbps     00:44:25.125    100,062 bytes   465,566 bytes   00:46:16.625    
6               0:49:43.625     0:11:01.833     24,071 kbps     55,914 kbps     00:56:50.291    38,994 kbps     00:56:17.500    36,339 kbps     00:53:13.666    125,369 bytes   631,565 bytes   00:56:52.333    
7               1:00:45.458     0:10:44.833     20,076 kbps     51,040 kbps     01:05:51.041    38,338 kbps     01:05:49.000    35,870 kbps     01:05:05.583    104,563 bytes   485,252 bytes   01:05:02.083    
8               1:11:30.291     0:08:09.791     16,386 kbps     38,883 kbps     01:19:09.125    34,574 kbps     01:19:08.791    33,659 kbps     01:19:08.000    85,344 bytes    412,764 bytes   01:19:15.375    
9               1:19:40.083     0:08:50.625     18,598 kbps     43,495 kbps     01:20:29.208    36,708 kbps     01:20:25.583    32,019 kbps     01:20:20.666    96,866 bytes    524,192 bytes   01:23:19.750    
10              1:28:30.708     0:09:58.666     18,262 kbps     37,341 kbps     01:38:22.458    30,374 kbps     01:38:04.541    27,274 kbps     01:38:03.958    95,113 bytes    387,409 bytes   01:38:23.208    
11              1:38:29.375     0:08:46.958     17,396 kbps     43,846 kbps     01:44:23.083    35,550 kbps     01:43:25.291    31,455 kbps     01:47:05.583    90,602 bytes    428,921 bytes   01:44:22.583    
12              1:47:16.333     0:04:15.208     8,955 kbps      26,213 kbps     01:51:16.291    23,773 kbps     01:51:13.500    22,171 kbps     01:51:11.291    46,655 bytes    301,822 bytes   01:47:16.375    

STREAM DIAGNOSTICS:

File            PID             Type            Codec           Language                Seconds                 Bitrate                 Bytes           Packets         
----            ---             ----            -----           --------                --------------          --------------          -------------   -----           
00000.M2TS      4113 (0x1011)   0xEA            VC-1                                    6690.458                19,946                  16,681,371,080  90,755,986      
00000.M2TS      4352 (0x1100)   0x86            DTS-HD MA       nld (Dutch)             6690.458                2,212                   1,849,510,416   11,077,398      
00000.M2TS      4353 (0x1101)   0x86            DTS-HD MA       nld (Dutch)             6690.458                2,104                   1,759,590,600   10,606,272      
00000.M2TS      4608 (0x1200)   0x90            PGS             nld (Dutch)             6690.458                22                      18,556,787      105,970         
00000.M2TS      4609 (0x1201)   0x90            PGS             eng (English)           6690.458                24                      20,185,233      115,476         
00000.M2TS      4610 (0x1202)   0x90            PGS             nld (Dutch)             6690.458                29                      24,578,763      140,562         
00006.M2TS      4113 (0x1011)   0xEA            VC-1                                    0.875                   181                     19,777          124             

[/code]
<---- END FORUMS PASTE ---->


********************
PLAYLIST: 00002.MPLS
********************

<--- BEGIN FORUMS PASTE --->
[code]
                                                                                                                Total   Video                                             
Title                                                           Codec   Length  Movie Size      Disc Size       Bitrate Bitrate Main Audio Track                          Secondary Audio Track
-----                                                           ------  ------- --------------  --------------  ------- ------- ------------------                        ---------------------
00002.MPLS                                                      VC-1    0:06:39 1,049,561,088   22,806,476,234  21.01   19.83   DD AC3 2.0 192Kbps                        
[/code]

[code]

DISC INFO:

Disc Title:     DE BENDE VAN OSS
Disc Size:      22,806,476,234 bytes
Protection:     AACS
BD-Java:        No
Extras:         50Hz Content
BDInfo:         0.5.8

PLAYLIST REPORT:

Name:                   00002.MPLS
Length:                 0:06:39.708 (h:m:s.ms)
Size:                   1,049,561,088 bytes
Total Bitrate:          21.01 Mbps

VIDEO:

Codec                   Bitrate             Description     
-----                   -------             -----------     
VC-1 Video              19833 kbps          1080p / 24 fps / 16:9 / Advanced Profile 3

AUDIO:

Codec                           Language        Bitrate         Description     
-----                           --------        -------         -----------     
Dolby Digital Audio             English         192 kbps        2.0 / 48 kHz / 192 kbps / DN -4dB

FILES:

Name            Time In         Length          Size            Total Bitrate   
----            -------         ------          ----            -------------   
00010.M2TS      0:00:00.000     0:00:04.000     473,088         946             
00011.M2TS      0:00:04.000     0:02:26.333     388,134,912     21,219          
00013.M2TS      0:02:30.333     0:01:57.208     311,672,832     21,273          
00012.M2TS      0:04:27.541     0:02:11.166     349,249,536     21,301          
00001.M2TS      0:06:38.708     0:00:01.000     30,720          246             

CHAPTERS:

Number          Time In         Length          Avg Video Rate  Max 1-Sec Rate  Max 1-Sec Time  Max 5-Sec Rate  Max 5-Sec Time  Max 10Sec Rate  Max 10Sec Time  Avg Frame Size  Max Frame Size  Max Frame Time  
------          -------         ------          --------------  --------------  --------------  --------------  --------------  --------------  --------------  --------------  --------------  --------------  
1               0:00:00.000     0:00:04.000     843 kbps        1,221 kbps      00:00:02.958    0 kbps          00:00:00.000    0 kbps          00:00:00.000    4,347 bytes     61,948 bytes    00:00:00.750    
2               0:00:04.000     0:02:26.333     20,034 kbps     58,738 kbps     00:01:29.249    37,857 kbps     00:01:16.916    31,473 kbps     00:01:41.124    104,375 bytes   694,253 bytes   00:01:46.333    
3               0:02:30.333     0:01:57.208     20,086 kbps     61,043 kbps     00:02:40.708    38,483 kbps     00:03:32.458    35,518 kbps     00:03:54.750    104,649 bytes   814,275 bytes   00:02:41.333    
4               0:04:27.541     0:02:12.166     19,961 kbps     57,953 kbps     00:05:56.083    37,279 kbps     00:05:52.750    32,397 kbps     00:05:49.791    104,061 bytes   714,586 bytes   00:04:35.541    

STREAM DIAGNOSTICS:

File            PID             Type            Codec           Language                Seconds                 Bitrate                 Bytes           Packets         
----            ---             ----            -----           --------                --------------          --------------          -------------   -----           
00010.M2TS      4113 (0x1011)   0xEA            VC-1                                    3.875                   852                     412,453         2,298           
00011.M2TS      4113 (0x1011)   0xEA            VC-1                                    146.208                 20,051                  366,460,816     1,993,741       
00011.M2TS      4352 (0x1100)   0x81            AC3             eng (English)           146.208                 192                     3,512,064       22,865          
00013.M2TS      4113 (0x1011)   0xEA            VC-1                                    117.083                 20,107                  294,274,366     1,601,016       
00013.M2TS      4352 (0x1100)   0x81            AC3             eng (English)           117.083                 192                     2,813,184       18,315          
00012.M2TS      4113 (0x1011)   0xEA            VC-1                                    131.083                 20,125                  329,759,798     1,794,108       
00012.M2TS      4352 (0x1100)   0x81            AC3             eng (English)           131.083                 192                     3,148,032       20,495          
00001.M2TS      4113 (0x1011)   0xEA            VC-1                                    0.875                   181                     19,777          124             

[/code]
<---- END FORUMS PASTE ---->


********************
PLAYLIST: 00001.MPLS
********************

<--- BEGIN FORUMS PASTE --->
[code]
                                                                                                                Total   Video                                             
Title                                                           Codec   Length  Movie Size      Disc Size       Bitrate Bitrate Main Audio Track                          Secondary Audio Track
-----                                                           ------  ------- --------------  --------------  ------- ------- ------------------                        ---------------------
00001.MPLS                                                      AVC     0:00:24 45,514,752      22,806,476,234  14.90   12.77   DTS-HD Master 5.1 1301Kbps (48kHz/16-bit) 
[/code]

[code]

DISC INFO:

Disc Title:     DE BENDE VAN OSS
Disc Size:      22,806,476,234 bytes
Protection:     AACS
BD-Java:        No
Extras:         50Hz Content
BDInfo:         0.5.8

PLAYLIST REPORT:

Name:                   00001.MPLS
Length:                 0:00:24.439 (h:m:s.ms)
Size:                   45,514,752 bytes
Total Bitrate:          14.90 Mbps

VIDEO:

Codec                   Bitrate             Description     
-----                   -------             -----------     
MPEG-4 AVC Video        12771 kbps          1080i / 25 fps / 16:9 / High Profile 4.1

AUDIO:

Codec                           Language        Bitrate         Description     
-----                           --------        -------         -----------     
DTS-HD Master Audio             English         1301 kbps       5.1 / 48 kHz / 1301 kbps / 16-bit (DTS Core: 5.1 / 48 kHz / 1509 kbps / 16-bit)

FILES:

Name            Time In         Length          Size            Total Bitrate   
----            -------         ------          ----            -------------   
00014.M2TS      0:00:00.000     0:00:14.039     13,375,488      7,621           
00008.M2TS      0:00:14.039     0:00:09.399     32,108,544      27,326          
00004.M2TS      0:00:23.439     0:00:01.000     30,720          246             

CHAPTERS:

Number          Time In         Length          Avg Video Rate  Max 1-Sec Rate  Max 1-Sec Time  Max 5-Sec Rate  Max 5-Sec Time  Max 10Sec Rate  Max 10Sec Time  Avg Frame Size  Max Frame Size  Max Frame Time  
------          -------         ------          --------------  --------------  --------------  --------------  --------------  --------------  --------------  --------------  --------------  --------------  
1               0:00:00.000     0:00:14.039     4,979 kbps      8,572 kbps      00:00:06.679    7,530 kbps      00:00:03.679    6,269 kbps      00:00:01.160    24,822 bytes    421,385 bytes   00:00:14.039    
2               0:00:14.039     0:00:10.399     23,290 kbps     32,839 kbps     00:00:21.679    28,083 kbps     00:00:17.839    24,121 kbps     00:00:14.039    116,901 bytes   420,891 bytes   00:00:21.719    

STREAM DIAGNOSTICS:

File            PID             Type            Codec           Language                Seconds                 Bitrate                 Bytes           Packets         
----            ---             ----            -----           --------                --------------          --------------          -------------   -----           
00014.M2TS      4113 (0x1011)   0x1B            AVC                                     13.920                  4,779                   8,315,946       45,408          
00014.M2TS      4352 (0x1100)   0x86            DTS-HD MA       eng (English)           13.920                  2,283                   3,973,148       23,746          
00008.M2TS      4113 (0x1011)   0x1B            AVC                                     9.240                   26,567                  30,684,418      166,885         
00004.M2TS      4113 (0x1011)   0x1B            AVC                                     0.840                   136                     14,254          97              

[/code]
<---- END FORUMS PASTE ---->



.

